<svg width="24" height="24" viewBox="0 0 24 24" fill="none" xmlns="http://www.w3.org/2000/svg">
<g clip-path="url(#clip0_9471_4644)">
<path d="M17.5127 12.8156H12.8241V17.5042C12.8241 18.02 12.4021 18.442 11.8864 18.442C11.3706 18.442 10.9486 18.02 10.9486 17.5042V12.8156H6.25999C5.74424 12.8156 5.32227 12.3936 5.32227 11.8779C5.32227 11.3621 5.74424 10.9401 6.25999 10.9401H10.9486V6.25151C10.9486 5.73576 11.3706 5.31378 11.8864 5.31378C12.4021 5.31378 12.8241 5.73576 12.8241 6.25151V10.9401H17.5127C18.0285 10.9401 18.4505 11.3621 18.4505 11.8779C18.4505 12.3936 18.0285 12.8156 17.5127 12.8156Z" fill="white"/>
</g>
<defs>
<clipPath id="clip0_9471_4644">
<rect width="22.5055" height="22.5055" fill="white" transform="translate(0.633789 0.625122)"/>
</clipPath>
</defs>
</svg>
