<svg width="20" height="19" viewBox="0 0 20 19" fill="none" xmlns="http://www.w3.org/2000/svg">
<g clip-path="url(#clip0_10203_1152)">
<path d="M3.4887 5.18877C3.97198 4.85099 4.70051 4.91577 5.13444 5.27412L4.63675 4.55073C4.23625 3.97953 4.37969 3.36155 4.9514 2.96052C5.52312 2.56104 7.14315 3.63506 7.14315 3.63506C6.73904 3.05821 6.81462 2.32711 7.39148 1.92249C7.96833 1.51941 8.76421 1.65874 9.16832 2.23662L14.5256 9.80466L13.8428 16.4241L8.14468 14.346L3.17456 6.97693C2.76685 6.39647 2.90773 5.59597 3.4887 5.18877Z" fill="#EF9645"/>
<path d="M2.37481 9.39903C2.37481 9.39903 1.79281 8.55072 2.64164 7.96923C3.48945 7.38775 4.07093 8.23555 4.07093 8.23555L6.77064 12.1728C6.8637 12.0175 6.9655 11.8643 7.07912 11.7131L3.33212 6.24946C3.33212 6.24946 2.75064 5.40165 3.59896 4.82017C4.44676 4.23869 5.02824 5.08649 5.02824 5.08649L8.55262 10.2263C8.68373 10.1193 8.81792 10.0119 8.95622 9.90648L4.87041 3.94717C4.87041 3.94717 4.28892 3.09937 5.13724 2.51788C5.98505 1.9364 6.56653 2.7842 6.56653 2.7842L10.6523 8.74249C10.8025 8.65046 10.9511 8.57077 11.1002 8.48645L7.28117 2.91736C7.28117 2.91736 6.69969 2.06956 7.54749 1.48808C8.3953 0.906592 8.97678 1.7544 8.97678 1.7544L13.0148 7.64327L13.6287 8.53889C11.0847 10.2839 10.8426 13.5666 12.296 15.6864C12.5865 16.1105 13.0107 15.82 13.0107 15.82C11.2662 13.2756 11.7989 10.4165 14.3433 8.67205L13.5932 4.91786C13.5932 4.91786 13.313 3.92866 14.3017 3.64795C15.2908 3.36775 15.5716 4.35694 15.5716 4.35694L16.4379 6.92966C16.7813 7.94969 17.1469 8.96614 17.6307 9.92756C18.9967 12.6422 18.1808 16.0159 15.605 17.783C12.7952 19.7095 8.95416 18.9933 7.02719 16.184L2.37481 9.39903Z" fill="#FFCF23"/>
<path d="M7.15852 16.9599C5.10199 16.9599 3.02387 14.8818 3.02387 12.8252C3.02387 12.5409 2.81565 12.3111 2.53133 12.3111C2.24702 12.3111 1.99561 12.5409 1.99561 12.8252C1.99561 15.91 4.07373 17.9881 7.15852 17.9881C7.44284 17.9881 7.67266 17.7367 7.67266 17.4524C7.67266 17.1681 7.44284 16.9599 7.15852 16.9599Z" fill="#5DADEC"/>
<path d="M4.58819 17.9666C3.04579 17.9666 2.01752 16.9383 2.01752 15.3959C2.01752 15.1116 1.78771 14.8818 1.50339 14.8818C1.21908 14.8818 0.989258 15.1116 0.989258 15.3959C0.989258 17.4525 2.53166 18.9949 4.58819 18.9949C4.8725 18.9949 5.10232 18.765 5.10232 18.4807C5.10232 18.1964 4.8725 17.9666 4.58819 17.9666ZM13.3284 1.51434C13.0446 1.51434 12.8143 1.74467 12.8143 2.02848C12.8143 2.31228 13.0446 2.54261 13.3284 2.54261C15.385 2.54261 17.4415 4.38783 17.4415 6.65567C17.4415 6.93947 17.6718 7.1698 17.9556 7.1698C18.2394 7.1698 18.4698 6.93947 18.4698 6.65567C18.4698 3.82074 16.4132 1.51434 13.3284 1.51434Z" fill="#5DADEC"/>
<path d="M15.8989 0.507629C15.6151 0.507629 15.3848 0.716367 15.3848 1.00017C15.3848 1.28397 15.6151 1.53589 15.8989 1.53589C17.4413 1.53589 18.448 2.67984 18.448 4.08496C18.448 4.36877 18.6994 4.5991 18.9837 4.5991C19.268 4.5991 19.4762 4.36877 19.4762 4.08496C19.4762 2.11224 17.9554 0.507629 15.8989 0.507629Z" fill="#5DADEC"/>
</g>
<defs>
<clipPath id="clip0_10203_1152">
<rect width="18.5088" height="18.5088" fill="white" transform="translate(0.989258 0.485962)"/>
</clipPath>
</defs>
</svg>
