<svg width="43" height="44" viewBox="0 0 43 44" fill="none" xmlns="http://www.w3.org/2000/svg">
<rect y="0.5" width="43" height="43" rx="21.5" fill="#E9F6F4"/>
<g clip-path="url(#clip0_10203_1135)">
<path d="M24.1223 12.1326C24.1852 12.1535 24.2498 12.1055 24.2468 12.0392C24.1774 10.5171 22.9591 9.5 21.6249 9.5C20.2825 9.5 19.0725 10.5302 19.003 12.0402C19 12.1064 19.0646 12.1544 19.1275 12.1335C20.6657 11.6217 22.6108 11.63 24.1223 12.1326Z" fill="#18856F"/>
<path d="M31.0812 27.1293C29.838 26.0638 29.1251 24.5136 29.1251 22.8768V22.2445C29.1251 22.185 29.0704 22.1413 29.0121 22.153C25.8281 22.7906 22.7501 20.3387 22.7501 17C22.7501 14.7333 23.9925 13.5195 24.3936 13.1754C24.4469 13.1297 24.4331 13.0434 24.3679 13.0175C19.5096 11.0899 14.1251 14.6712 14.1251 20V22.8768C14.1251 24.4806 13.4361 26.0436 12.169 27.1293C11.9599 27.3083 11.7893 27.5347 11.6754 27.7832C11.0922 29.0508 12.0234 30.5 13.4163 30.5H29.8003C30.8111 30.5 31.6735 29.7301 31.7452 28.7218C31.7904 28.0852 31.5192 27.5044 31.0812 27.1293Z" fill="#18856F"/>
<path d="M21.6242 33.5C23.016 33.5 24.2137 32.6533 24.7289 31.4477C24.7689 31.3542 24.7021 31.25 24.6003 31.25H18.6481C18.5464 31.25 18.4796 31.3542 18.5196 31.4477C19.0348 32.6533 20.2325 33.5 21.6242 33.5Z" fill="#18856F"/>
<path d="M28 21.5C30.4971 21.5 32.5 19.4783 32.5 17C32.5 14.5189 30.4811 12.5 28 12.5C25.5048 12.5 23.5 14.5264 23.5 17C23.5 19.4811 25.5189 21.5 28 21.5ZM27.4178 15.8356C27.2322 15.928 27.0072 15.853 26.9144 15.6678C26.822 15.4827 26.897 15.2572 27.0822 15.1644L27.8322 14.7894C28.0797 14.6656 28.375 14.8445 28.375 15.125V18.4531C28.375 18.479 28.396 18.5 28.4219 18.5H28.7372C28.937 18.5 29.1114 18.6508 29.1242 18.8502C29.1382 19.0686 28.9654 19.25 28.75 19.25H27.2628C27.063 19.25 26.8886 19.0992 26.8758 18.8998C26.8618 18.6814 27.0346 18.5 27.25 18.5H27.5781C27.604 18.5 27.625 18.479 27.625 18.4531V15.8075C27.625 15.7727 27.5882 15.75 27.5571 15.7656L27.4178 15.8356Z" fill="#E92828"/>
</g>
<defs>
<clipPath id="clip0_10203_1135">
<rect width="24" height="24" fill="white" transform="translate(10 9.5)"/>
</clipPath>
</defs>
</svg>
