<svg width="18" height="20" viewBox="0 0 18 20" fill="none" xmlns="http://www.w3.org/2000/svg">
<path fill-rule="evenodd" clip-rule="evenodd" d="M15.8574 9.18075C15.8574 13.1921 12.6056 16.4439 8.59429 16.4439C4.58296 16.4439 1.33113 13.1921 1.33113 9.18075C1.33113 5.16941 4.58296 1.91759 8.59429 1.91759C12.6056 1.91759 15.8574 5.16941 15.8574 9.18075ZM13.4636 16.1165C12.0859 17.0855 10.4066 17.6544 8.59429 17.6544C3.9144 17.6544 0.120605 13.8606 0.120605 9.18075C0.120605 4.50086 3.9144 0.707062 8.59429 0.707062C13.2742 0.707062 17.068 4.50086 17.068 9.18075C17.068 11.6109 16.045 13.8021 14.4062 15.3472L17.496 18.437L16.64 19.293L13.4636 16.1165Z" fill="#18856F"/>
</svg>
