<svg width="24" height="24" viewBox="0 0 24 24" fill="none" xmlns="http://www.w3.org/2000/svg">
<g clip-path="url(#clip0_10203_9208)">
<path d="M15.5828 6.5741C17.2343 6.5741 18.5731 5.2353 18.5731 3.5838C18.5731 1.93231 17.2343 0.593506 15.5828 0.593506C13.9313 0.593506 12.5925 1.93231 12.5925 3.5838C12.5925 5.2353 13.9313 6.5741 15.5828 6.5741Z" fill="#FFAE1B"/>
<path d="M8.784 3.98926C7.13248 3.98926 5.7937 5.32803 5.7937 6.97955C5.7937 7.10643 5.80251 7.23118 5.81787 7.3539H11.7501C11.7654 7.23122 11.7743 7.10643 11.7743 6.97955C11.7743 5.32808 10.4355 3.98926 8.784 3.98926Z" fill="#18856F"/>
<path d="M14.677 12.341H21.1137V9.86762C21.1137 9.25966 20.6208 8.76688 20.013 8.76688H2.64493C2.03697 8.76688 1.54419 9.25975 1.54419 9.86762V22.6187C1.54419 23.2266 2.03697 23.7194 2.64493 23.7194H20.013C20.6209 23.7194 21.1137 23.2266 21.1137 22.6187V20.1453H14.677C13.351 20.1453 12.2722 19.0665 12.2722 17.7405V14.7458C12.2721 13.4197 13.3509 12.341 14.677 12.341Z" fill="#18856F"/>
<path d="M21.7643 13.8441H14.6769C14.1789 13.8441 13.7751 14.2478 13.7751 14.7458V17.7406C13.7751 18.2386 14.1789 18.6423 14.6769 18.6423H21.7643C22.2624 18.6423 22.6661 18.2386 22.6661 17.7406V14.7458C22.6661 14.2478 22.2623 13.8441 21.7643 13.8441ZM16.1688 17.3017C15.5842 17.3017 15.1103 16.8278 15.1103 16.2432C15.1103 15.6586 15.5842 15.1847 16.1688 15.1847C16.7534 15.1847 17.2273 15.6586 17.2273 16.2432C17.2273 16.8278 16.7534 17.3017 16.1688 17.3017Z" fill="#FFAE1B"/>
</g>
<defs>
<clipPath id="clip0_10203_9208">
<rect width="23.1259" height="23.1259" fill="white" transform="translate(0.542236 0.593506)"/>
</clipPath>
</defs>
</svg>
